<?xml version="1.0" standalone="no"?>
<!DOCTYPE svg PUBLIC "-//W3C//DTD SVG 20010904//EN"
 "http://www.w3.org/TR/2001/REC-SVG-20010904/DTD/svg10.dtd">
<svg version="1.0" xmlns="http://www.w3.org/2000/svg"
 width="791.000000pt" height="791.000000pt" viewBox="0 0 791.000000 791.000000"
 preserveAspectRatio="xMidYMid meet">
<metadata>
Created by potrace 1.11, written by Peter Selinger 2001-2013
</metadata>
<g transform="translate(0.000000,791.000000) scale(0.100000,-0.100000)"
fill="#000000" stroke="none">
<path d="M3355 7312 c-17 -3 -603 -191 -755 -242 -146 -49 -497 -162 -510
-165 -8 -2 -33 -10 -55 -18 -22 -8 -188 -63 -370 -122 -181 -59 -348 -113
-370 -120 -22 -8 -202 -66 -400 -130 -198 -65 -393 -128 -432 -142 -40 -13
-81 -26 -90 -28 -10 -2 -79 -24 -153 -49 -196 -65 -214 -89 -171 -222 11 -32
70 -214 131 -404 61 -190 120 -370 130 -400 10 -30 50 -154 90 -275 39 -121
98 -301 130 -400 32 -99 109 -335 170 -525 61 -190 120 -370 130 -400 10 -30
71 -217 135 -415 140 -431 240 -740 265 -815 29 -86 236 -727 261 -805 40
-130 81 -158 182 -124 29 9 194 63 367 119 173 56 328 106 343 112 19 8 182
11 491 11 l461 0 195 -100 c107 -55 335 -171 505 -258 510 -259 1174 -598
1404 -717 151 -77 195 -78 239 -6 11 18 89 170 175 338 151 299 294 579 544
1070 69 135 188 369 265 520 337 660 438 859 553 1085 67 132 188 368 268 525
79 157 199 392 266 524 132 257 136 273 89 323 -13 14 -99 63 -193 110 -93 47
-267 135 -385 195 -118 61 -330 169 -470 240 -140 72 -349 179 -465 238 -115
59 -270 138 -342 175 l-133 67 0 294 c0 326 -2 340 -61 364 -25 11 -245 13
-1098 14 l-1066 1 -85 256 c-47 141 -93 263 -102 272 -21 22 -58 34 -83 29z"/>
</g>
</svg>
